<svg xmlns="http://www.w3.org/2000/svg" width="800" height="900" viewBox="0 0 800 900" preserveAspectRatio="xMidYMid slice" role="img" aria-label="Коммерческая недвижимость">
  <defs>
    <linearGradient id="skym" x1="0" y1="0" x2="0" y2="1">
      <stop offset="0" stop-color="#9fb8c9"/>
      <stop offset="1" stop-color="#c7d8e3"/>
    </linearGradient>
    <linearGradient id="bldgm" x1="0" y1="0" x2="0" y2="1">
      <stop offset="0" stop-color="#3a4a57"/>
      <stop offset="1" stop-color="#222c34"/>
    </linearGradient>
  </defs>
  <rect width="800" height="900" fill="url(#skym)"/>
  <rect x="60" y="260" width="680" height="640" fill="url(#bldgm)"/>
  <g fill="#86AEC8" opacity="0.85">
    <rect x="110" y="320" width="90" height="90" rx="6"/>
    <rect x="230" y="320" width="90" height="90" rx="6"/>
    <rect x="350" y="320" width="90" height="90" rx="6"/>
    <rect x="470" y="320" width="90" height="90" rx="6"/>
    <rect x="590" y="320" width="90" height="90" rx="6"/>
    <rect x="110" y="440" width="90" height="90" rx="6"/>
    <rect x="230" y="440" width="90" height="90" rx="6"/>
    <rect x="350" y="440" width="90" height="90" rx="6"/>
    <rect x="470" y="440" width="90" height="90" rx="6"/>
    <rect x="590" y="440" width="90" height="90" rx="6"/>
    <rect x="110" y="560" width="90" height="90" rx="6"/>
    <rect x="230" y="560" width="90" height="90" rx="6"/>
    <rect x="350" y="560" width="90" height="90" rx="6"/>
    <rect x="470" y="560" width="90" height="90" rx="6"/>
    <rect x="590" y="560" width="90" height="90" rx="6"/>
  </g>
  <rect x="350" y="700" width="100" height="200" fill="#1c252c"/>
</svg>
